# xmcd CD database file
#
# Track frame offsets:
#	183
#	10988
#	23238
#	34393
#	46010
#	58760
#	69693
#	81970
#	94483
#	106080
#	117030
#	127373
#	140130
#	150725
#	162518
#	172455
#	184340
#	196900
#	211273
#	223755
#
# Disc length: 3120 seconds
#
# Revision: 0
# Processed by: cddbd v1.4PL0 Copyright (c) Steve Scherf et al.
# Submitted via: CDex 1.40Beta8
#
DISCID=350c2e14
DTITLE=Various Country Artists - Country Junction # disc1
DYEAR=1991
DGENRE=Country
TTITLE0=Ernie Ford Country Junction
TTITLE1=Faron Young - Goin Steady
TTITLE2=Jean Shepard - A Satisfied Mind
TTITLE3=Ferlin Husky - My Home Town
TTITLE4=Tex Ritter - High Noon
TTITLE5=Hank Thompson - There my Future Goes
TTITLE6=Tex Williams - Smoke Smoke Smoke That --
TTITLE7=Ernie Ford - I Don't Hurt anymore
TTITLE8=Wanda Jackson - Cold Cold Heart
TTITLE9=George Jones - Ain't it funny what a fool will do
TTITLE10=Melba Montgomery - Whats bad for you
TTITLE11=Tex Ritter - I'm Wasting my tears on you
TTITLE12=Jean Shard - You're calling me sweetheart again
TTITLE13=Ernie Ford - Sixteen Tons
TTITLE14=Ferlin Husky - Sioux City Sue
TTITLE15=Tex Williams - Thats what I like about the west
TTITLE16=Faron Young - Sweet dreams
TTITLE17=Tex Ritter - Streets of Laredo
TTITLE18=Ernie Ford - Tears on my pillow
TTITLE19=Hank Thompson - Left my gal in the mountains
EXTD=YEAR: 1991 ID3G: 2
EXTT0=
EXTT1=
EXTT2=
EXTT3=
EXTT4=
EXTT5=
EXTT6=
EXTT7=
EXTT8=
EXTT9=
EXTT10=
EXTT11=
EXTT12=
EXTT13=
EXTT14=
EXTT15=
EXTT16=
EXTT17=
EXTT18=
EXTT19=
PLAYORDER=
